<?xml version="1.0" encoding="utf-8"?>
<svg width="33px" height="33px" viewBox="0 0 33 33" version="1.1" xmlns:xlink="http://www.w3.org/1999/xlink" xmlns="http://www.w3.org/2000/svg">
  <defs>
    <path d="M0 0L33 0L33 33L0 33L0 0Z" id="path_1" />
    <clipPath id="mask_1">
      <use xlink:href="#path_1" />
    </clipPath>
  </defs>
  <g id="Remove-icon">
    <path d="M0 0L33 0L33 33L0 33L0 0Z" id="Background" fill="none" fill-rule="evenodd" stroke="none" />
    <g clip-path="url(#mask_1)">
      <path d="M13.3982 2.0625C11.7063 2.0625 10.3125 3.4563 10.3125 5.14819L10.3125 6.1875L4.125 6.1875L4.125 8.25L6.1875 8.25L6.1875 25.7813C6.1875 27.4893 7.57324 28.875 9.28125 28.875L21.6563 28.875C23.3643 28.875 24.75 27.4893 24.75 25.7813L24.75 8.25L26.8125 8.25L26.8125 6.1875L20.625 6.1875L20.625 5.14819C20.625 3.4563 19.2312 2.0625 17.5393 2.0625L13.3982 2.0625ZM13.3982 4.125L17.5393 4.125C18.1194 4.125 18.5625 4.56812 18.5625 5.14819L18.5625 6.1875L12.375 6.1875L12.375 5.14819C12.375 4.56812 12.8181 4.125 13.3982 4.125L13.3982 4.125ZM10.3125 10.3125L12.375 10.3125L12.375 24.75L10.3125 24.75L10.3125 10.3125ZM14.4375 10.3125L16.5 10.3125L16.5 24.75L14.4375 24.75L14.4375 10.3125ZM18.5625 10.3125L20.625 10.3125L20.625 24.75L18.5625 24.75L18.5625 10.3125Z" id="Shape" fill="#FF0000" fill-rule="evenodd" stroke="none" />
    </g>
  </g>
</svg>